G04*
G04 #@! TF.GenerationSoftware,Altium Limited,Altium Designer,21.6.4 (81)*
G04*
G04 Layer_Physical_Order=1*
G04 Layer_Color=255*
%FSLAX44Y44*%
%MOMM*%
G71*
G04*
G04 #@! TF.SameCoordinates,B536BBD3-7635-4869-82B2-4475C75F943D*
G04*
G04*
G04 #@! TF.FilePolarity,Positive*
G04*
G01*
G75*
%ADD11C,0.2000*%
%ADD13R,3.0000X3.1000*%
%ADD14R,1.7800X0.3560*%
%ADD15R,1.9500X1.4000*%
%ADD16R,3.3000X1.2000*%
%ADD17R,1.5000X1.5000*%
%ADD18R,1.4000X1.9500*%
%ADD19R,0.7100X1.3720*%
%ADD20R,4.5200X3.8500*%
%ADD21R,0.7200X0.5930*%
%ADD22R,5.7000X1.6000*%
%ADD23R,2.5000X6.5000*%
%ADD24R,1.1500X1.8000*%
%ADD25R,1.8000X1.1500*%
%ADD41C,0.3560*%
%ADD42C,0.4000*%
%ADD43C,0.7000*%
%ADD44C,1.5000*%
%ADD45C,0.5080*%
G36*
X153517Y328724D02*
X154734Y327507D01*
X156226Y326646D01*
X156614Y326542D01*
X158750Y324406D01*
Y293370D01*
X159207D01*
Y287353D01*
X159006Y287004D01*
X158560Y285341D01*
Y283619D01*
X159006Y281956D01*
X159867Y280464D01*
X161084Y279247D01*
X162576Y278386D01*
X164239Y277940D01*
X165961D01*
X167624Y278386D01*
X169116Y279247D01*
X170333Y280464D01*
X171194Y281956D01*
X171640Y283619D01*
Y285341D01*
X171194Y287004D01*
X170993Y287353D01*
Y293370D01*
X175850D01*
Y291729D01*
X176296Y290066D01*
X177157Y288574D01*
X178374Y287357D01*
X179866Y286496D01*
X181529Y286050D01*
X183251D01*
X184914Y286496D01*
X186406Y287357D01*
X187623Y288574D01*
X188484Y290066D01*
X188930Y291729D01*
Y293370D01*
X231140D01*
X290830Y233680D01*
X350386D01*
Y211996D01*
X351358D01*
X351600Y211681D01*
Y209959D01*
X352046Y208296D01*
X352788Y207010D01*
X352366Y205740D01*
X317518D01*
Y210996D01*
X317500Y211086D01*
Y214630D01*
X316384D01*
X315996Y216581D01*
X314891Y218235D01*
X313237Y219340D01*
X311286Y219728D01*
X219430D01*
Y226000D01*
X184430D01*
Y219728D01*
X96520D01*
Y226292D01*
X97892D01*
X99469Y225870D01*
X101191D01*
X102854Y226316D01*
X104346Y227177D01*
X105563Y228394D01*
X106424Y229886D01*
X106870Y231549D01*
Y233271D01*
X106424Y234934D01*
X105563Y236426D01*
X104346Y237643D01*
X102854Y238504D01*
X101191Y238950D01*
X99469D01*
X97892Y238528D01*
X96520D01*
Y256449D01*
X98216D01*
X99793Y256026D01*
X101515D01*
X103178Y256472D01*
X104669Y257333D01*
X105887Y258551D01*
X106748Y260042D01*
X107194Y261705D01*
Y263427D01*
X106748Y265091D01*
X105887Y266582D01*
X104669Y267800D01*
X103178Y268661D01*
X101515Y269106D01*
X99793D01*
X98216Y268684D01*
X96520D01*
Y278130D01*
X28650D01*
Y324735D01*
X32845Y328930D01*
X38318D01*
X40895Y327442D01*
X44074Y326590D01*
X47366D01*
X50545Y327442D01*
X53122Y328930D01*
X153398D01*
X153517Y328724D01*
D02*
G37*
G36*
X402590Y316498D02*
X363976D01*
X362415Y316188D01*
X361245Y315406D01*
X354527D01*
X353357Y316188D01*
X351796Y316498D01*
X312152D01*
X307340Y321310D01*
Y340360D01*
X306338D01*
Y344170D01*
X306338Y344170D01*
X306028Y345731D01*
X305144Y347054D01*
X301334Y350864D01*
X300011Y351748D01*
X298450Y352058D01*
X298450Y352058D01*
X274863D01*
Y358070D01*
X300020D01*
Y377570D01*
X274020D01*
Y372923D01*
X273050D01*
X270795Y372475D01*
X268883Y371197D01*
X264803Y367117D01*
X263525Y365205D01*
X263093Y363031D01*
X262948Y362665D01*
X262069Y361990D01*
X261511Y362140D01*
X259789D01*
X258126Y361694D01*
X256634Y360833D01*
X255417Y359616D01*
X254556Y358124D01*
X254110Y356461D01*
Y354739D01*
X254556Y353076D01*
X254757Y352727D01*
Y351400D01*
X242234D01*
X241790Y351459D01*
X231090D01*
X230646Y351400D01*
X227890D01*
Y350633D01*
X227671Y350542D01*
X226255Y349455D01*
X222419Y345620D01*
X218670D01*
Y370810D01*
X222360D01*
Y398810D01*
X200860D01*
Y370810D01*
X204550D01*
Y345620D01*
X195290D01*
Y350400D01*
X187488D01*
Y371810D01*
X191360D01*
Y397810D01*
X171860D01*
Y371810D01*
X177292D01*
Y350400D01*
X169490D01*
Y340360D01*
X69850D01*
Y334028D01*
X53122D01*
X52793Y333962D01*
X52457Y333984D01*
X51825Y333770D01*
X51171Y333640D01*
X50892Y333453D01*
X50573Y333345D01*
X48577Y332192D01*
X46694Y331688D01*
X44745D01*
X42863Y332192D01*
X40867Y333345D01*
X40548Y333453D01*
X40269Y333640D01*
X39615Y333770D01*
X38983Y333984D01*
X38647Y333962D01*
X38318Y334028D01*
X32845D01*
X30894Y333640D01*
X29240Y332535D01*
X25046Y328340D01*
X23940Y326686D01*
X23552Y324735D01*
Y278130D01*
X23940Y276179D01*
X25046Y274525D01*
X26700Y273420D01*
X28650Y273032D01*
X64060D01*
Y250574D01*
X62827Y249342D01*
X61240Y248685D01*
X59892Y247650D01*
X0D01*
Y425450D01*
X402590D01*
Y316498D01*
D02*
G37*
G36*
X302260Y344170D02*
Y318770D01*
X308610Y312420D01*
X351796D01*
Y295146D01*
X363976D01*
Y300937D01*
X365924D01*
X366621Y300239D01*
X368488Y299466D01*
X370509D01*
X372377Y300239D01*
X373806Y301668D01*
X374579Y303535D01*
Y305557D01*
X373806Y307424D01*
X372377Y308853D01*
X370509Y309626D01*
X368488D01*
X366621Y308853D01*
X365924Y308155D01*
X363976D01*
Y312420D01*
X402590D01*
Y181610D01*
X318075D01*
X317091Y182268D01*
X316771Y182331D01*
X316708Y182651D01*
X316498Y182964D01*
Y199390D01*
X374650D01*
Y237490D01*
X302260D01*
X283953Y255797D01*
X284439Y256970D01*
X298230D01*
Y278970D01*
X270730D01*
Y274088D01*
X267964D01*
X256540Y285511D01*
Y320715D01*
X267416D01*
X271878Y316253D01*
X272553Y314622D01*
X273982Y313193D01*
X275849Y312420D01*
X277871D01*
X279738Y313193D01*
X281167Y314622D01*
X281940Y316490D01*
Y318510D01*
X281167Y320378D01*
X279738Y321807D01*
X278107Y322482D01*
X272355Y328234D01*
X270926Y329189D01*
X269240Y329525D01*
X267128D01*
X266642Y330698D01*
X273137Y337193D01*
X274415Y339105D01*
X274863Y341360D01*
Y347980D01*
X298450D01*
X302260Y344170D01*
D02*
G37*
G36*
X68580Y218946D02*
X67515Y218235D01*
X66410Y216581D01*
X66022Y214630D01*
Y179949D01*
X65610Y178850D01*
X64752Y178850D01*
X60728D01*
Y186390D01*
X64360D01*
Y212390D01*
X61824D01*
X61051Y213398D01*
X61150Y213769D01*
Y215491D01*
X60704Y217154D01*
X59843Y218646D01*
X58626Y219863D01*
X57134Y220724D01*
X55471Y221170D01*
X53749D01*
X52086Y220724D01*
X50594Y219863D01*
X49377Y218646D01*
X48516Y217154D01*
X48070Y215491D01*
Y213769D01*
X48169Y213398D01*
X47396Y212390D01*
X44860D01*
Y186390D01*
X48492D01*
Y178850D01*
X43610D01*
Y151350D01*
X48492D01*
Y130804D01*
X28194Y110506D01*
X26868Y108521D01*
X26402Y106180D01*
Y79850D01*
X12020D01*
Y59850D01*
X53020D01*
Y79850D01*
X38637D01*
Y103646D01*
X58936Y123944D01*
X60262Y125929D01*
X60728Y128270D01*
Y151350D01*
X64752D01*
X66022Y150251D01*
Y130810D01*
X66410Y128859D01*
X67515Y127205D01*
X81485Y113235D01*
X83139Y112130D01*
X85090Y111742D01*
X299702D01*
Y0D01*
X0D01*
Y242552D01*
X59892D01*
X60546Y242682D01*
X61211Y242726D01*
X61513Y242875D01*
X61842Y242940D01*
X62397Y243311D01*
X62995Y243605D01*
X63811Y244231D01*
X64778Y244632D01*
X65493Y245110D01*
X68580D01*
Y218946D01*
D02*
G37*
G36*
X311286Y210996D02*
X312420D01*
Y181610D01*
X312940Y181090D01*
Y178500D01*
X315530D01*
X317500Y176530D01*
X402590D01*
Y0D01*
X304800D01*
Y116840D01*
X85090D01*
X71120Y130810D01*
X71120Y214630D01*
X311286D01*
Y210996D01*
D02*
G37*
%LPC*%
G36*
X55760Y323730D02*
X46990D01*
Y314960D01*
X55760D01*
Y323730D01*
D02*
G37*
G36*
X44450D02*
X35680D01*
Y314960D01*
X44450D01*
Y323730D01*
D02*
G37*
G36*
X55760Y312420D02*
X46990D01*
Y303650D01*
X55760D01*
Y312420D01*
D02*
G37*
G36*
X44450D02*
X35680D01*
Y303650D01*
X44450D01*
Y312420D01*
D02*
G37*
G36*
X117020Y54450D02*
X76020D01*
Y34450D01*
X117020D01*
Y54450D01*
D02*
G37*
G36*
X394850Y125610D02*
X386080D01*
Y116840D01*
X394850D01*
Y125610D01*
D02*
G37*
G36*
X383540D02*
X374770D01*
Y116840D01*
X383540D01*
Y125610D01*
D02*
G37*
G36*
X394850Y114300D02*
X386080D01*
Y105530D01*
X394850D01*
Y114300D01*
D02*
G37*
G36*
X383540D02*
X374770D01*
Y105530D01*
X383540D01*
Y114300D01*
D02*
G37*
G36*
X386456Y102670D02*
X383164D01*
X379985Y101818D01*
X377135Y100173D01*
X374808Y97845D01*
X373162Y94995D01*
X372310Y91816D01*
Y88524D01*
X373162Y85345D01*
X374808Y82495D01*
X376237Y81066D01*
Y70640D01*
X372310D01*
Y45640D01*
X397310D01*
Y70640D01*
X393383D01*
Y81066D01*
X394813Y82495D01*
X396458Y85345D01*
X397310Y88524D01*
Y91816D01*
X396458Y94995D01*
X394813Y97845D01*
X392485Y100173D01*
X389635Y101818D01*
X386456Y102670D01*
D02*
G37*
G36*
X396310Y34640D02*
X373310D01*
Y30425D01*
X357920D01*
Y33860D01*
X330420D01*
Y11860D01*
X357920D01*
Y15295D01*
X373310D01*
Y11640D01*
X396310D01*
Y34640D01*
D02*
G37*
%LPD*%
D11*
X357886Y304546D02*
X369499D01*
X223520Y313690D02*
X225090Y312120D01*
X284480Y295970D02*
Y337820D01*
X182390Y292590D02*
Y305620D01*
X142240Y317980D02*
X142880Y318620D01*
X291754Y333086D02*
X297278D01*
X287020Y337820D02*
X291754Y333086D01*
X298450Y316230D02*
Y331914D01*
X297278Y333086D02*
X298450Y331914D01*
X181610Y384810D02*
X182390Y384030D01*
Y344620D02*
Y384030D01*
X298450Y316230D02*
X310134Y304546D01*
X358140Y210820D02*
Y222602D01*
X357886Y222856D02*
X358140Y222602D01*
X310134Y304546D02*
X319786D01*
D13*
X212090Y325120D02*
D03*
D14*
X241790Y305620D02*
D03*
Y312120D02*
D03*
Y318620D02*
D03*
Y325120D02*
D03*
Y331620D02*
D03*
Y338120D02*
D03*
Y344620D02*
D03*
X182390Y305620D02*
D03*
Y312120D02*
D03*
Y318620D02*
D03*
Y325120D02*
D03*
Y331620D02*
D03*
Y338120D02*
D03*
Y344620D02*
D03*
D15*
X344170Y50860D02*
D03*
Y22860D02*
D03*
X284480Y267970D02*
D03*
Y295970D02*
D03*
D16*
X96520Y44450D02*
D03*
Y95250D02*
D03*
X32520Y69850D02*
D03*
D17*
X384810Y23140D02*
D03*
Y58140D02*
D03*
Y115570D02*
D03*
X45720Y313690D02*
D03*
D18*
X82610Y165100D02*
D03*
X54610D02*
D03*
X83820Y262890D02*
D03*
X55820D02*
D03*
D19*
X357936Y222856D02*
D03*
X332536D02*
D03*
X345236D02*
D03*
X319836D02*
D03*
X319786Y304546D02*
D03*
X345186D02*
D03*
X332486D02*
D03*
X357886D02*
D03*
D20*
X339140Y257400D02*
D03*
X339090Y339090D02*
D03*
D21*
X358140Y279400D02*
D03*
X320140D02*
D03*
X345440D02*
D03*
X332840D02*
D03*
X332790Y361090D02*
D03*
X345390D02*
D03*
X320090D02*
D03*
X358090D02*
D03*
D22*
X345440Y190500D02*
D03*
Y143500D02*
D03*
D23*
X201930Y188500D02*
D03*
X203200Y63500D02*
D03*
D24*
X84610Y199390D02*
D03*
X54610D02*
D03*
X211610Y384810D02*
D03*
X181610D02*
D03*
X54610Y232410D02*
D03*
X84610D02*
D03*
D25*
X287020Y367820D02*
D03*
Y337820D02*
D03*
X91440Y317980D02*
D03*
Y347980D02*
D03*
X116840D02*
D03*
Y317980D02*
D03*
X142240D02*
D03*
Y347980D02*
D03*
D41*
X260650Y344286D02*
Y355600D01*
X259230Y331620D02*
X268970Y341360D01*
Y362950D02*
X273050Y367030D01*
X268970Y341360D02*
Y362950D01*
X215900Y328930D02*
X223520Y336550D01*
X223270Y336800D02*
X231090Y344620D01*
X241790D01*
X225090Y312120D02*
X241790D01*
X269240Y325120D02*
X276860Y317500D01*
X241790Y325120D02*
X269240D01*
X266640Y295970D02*
X284480D01*
X259080Y303530D02*
Y315223D01*
Y303530D02*
X266640Y295970D01*
X255683Y318620D02*
X259080Y315223D01*
X165100Y284480D02*
Y306070D01*
X171150Y312120D01*
X254484Y338120D02*
X260650Y344286D01*
X241790Y338120D02*
X254484D01*
X241790Y318620D02*
X255683D01*
X158750Y332740D02*
X166370Y325120D01*
X182390D01*
X241790Y331620D02*
X259230D01*
X273050Y367030D02*
X283690D01*
X142240Y347980D02*
X157480D01*
X167340Y338120D02*
X182390D01*
X157480Y347980D02*
X167340Y338120D01*
X171150Y312120D02*
X182390D01*
D42*
X384530Y22860D02*
X384810Y23140D01*
X71120Y247650D02*
Y278130D01*
X66040Y242570D02*
X71120Y247650D01*
X54610Y235660D02*
X58360Y239410D01*
X61610D01*
X64770Y242570D02*
X66040D01*
X54610Y232410D02*
Y235660D01*
X61610Y239410D02*
X64770Y242570D01*
X200660Y320190D02*
Y321310D01*
X199090Y318620D02*
X200660Y320190D01*
X215900Y328930D02*
Y336550D01*
X212090Y325120D02*
X215900Y328930D01*
X182390Y318620D02*
X199090D01*
X339090Y257400D02*
X339140D01*
X339090D02*
X346710Y265020D01*
Y270510D01*
X356870Y257400D02*
X377600D01*
X339140D02*
X356870D01*
X345440Y190500D02*
X381000D01*
X386080Y195580D01*
X343440Y51590D02*
X344170Y50860D01*
X32520Y106180D02*
X54610Y128270D01*
X32520Y69850D02*
Y106180D01*
X208280Y186690D02*
X238760D01*
X377600Y257400D02*
X386080Y248920D01*
Y195580D02*
Y248920D01*
X345440Y279400D02*
X358090D01*
X345390D02*
X345440D01*
X332840D02*
X345390D01*
X332790D02*
X332840D01*
X332790Y270510D02*
Y279400D01*
X320140D02*
X332790D01*
X320090D02*
X320140D01*
X54610Y128270D02*
Y165100D01*
Y199390D01*
Y214630D01*
X297844Y222856D02*
X345186D01*
X142240Y292100D02*
Y317980D01*
X191770Y242570D02*
X278130D01*
X142240Y292100D02*
X191770Y242570D01*
X319125Y362055D02*
X320090Y361090D01*
X332790D01*
X345390D01*
X83820Y262890D02*
X84144Y262566D01*
X100654D01*
X84610Y165100D02*
X116840D01*
X82610D02*
X84610D01*
X62230Y401320D02*
X278130D01*
X317395Y362055D01*
X45720Y384810D02*
X62230Y401320D01*
X317395Y362055D02*
X319125D01*
X21590Y327660D02*
X32220Y338290D01*
X44920D02*
X45720Y339090D01*
X32220Y338290D02*
X44920D01*
X21590Y271780D02*
Y327660D01*
Y271780D02*
X30480Y262890D01*
X55820D01*
X45720Y297180D02*
X49530Y293370D01*
X45720Y297180D02*
Y313690D01*
X49530Y293370D02*
X55880D01*
X116840Y347980D02*
X142240D01*
X91440D02*
X116840D01*
X67310D02*
X91440D01*
X46520Y339890D02*
X59220D01*
X45720Y339090D02*
X46520Y339890D01*
X59220D02*
X67310Y347980D01*
X116840Y317980D02*
X142240D01*
X91440D02*
X116840D01*
X69060D02*
X91440D01*
X64770Y313690D02*
X69060Y317980D01*
X45720Y313690D02*
X64770D01*
X84610Y232410D02*
X100330D01*
X82610Y165100D02*
X84610Y167100D01*
Y199390D01*
X265430Y267970D02*
X284480D01*
X241790Y291610D02*
X265430Y267970D01*
X241790Y291610D02*
Y305620D01*
X211610Y325600D02*
Y384810D01*
Y325600D02*
X212090Y325120D01*
X238760Y186690D02*
X281950Y143500D01*
X345440D01*
X194310Y186690D02*
X208280D01*
X345440Y143500D02*
X387340D01*
X116840Y165100D02*
X138430Y186690D01*
X194310D01*
X278130Y242570D02*
X297844Y222856D01*
X319786Y304546D02*
X332486D01*
X345186D01*
X345288Y304444D01*
Y279502D02*
Y304444D01*
Y279502D02*
X345390Y279400D01*
X345390Y361090D02*
X358090D01*
Y356340D02*
Y361090D01*
X45720Y339090D02*
Y384810D01*
X181610D02*
X181746Y377810D01*
D43*
X344170Y22860D02*
X384530D01*
X384810Y58140D02*
Y90170D01*
D44*
D03*
X45720Y339090D02*
D03*
D45*
X208317Y321338D02*
D03*
X215974D02*
D03*
X223631Y328944D02*
D03*
X215974D02*
D03*
X208317D02*
D03*
X260650Y355600D02*
D03*
X369499Y304546D02*
D03*
X321310Y262043D02*
D03*
Y271780D02*
D03*
Y242570D02*
D03*
Y252307D02*
D03*
X359410D02*
D03*
Y242570D02*
D03*
Y271780D02*
D03*
Y262043D02*
D03*
X349885Y252307D02*
D03*
Y242570D02*
D03*
Y271780D02*
D03*
Y262043D02*
D03*
X340360Y252307D02*
D03*
Y242570D02*
D03*
Y271780D02*
D03*
Y262043D02*
D03*
X330835Y252307D02*
D03*
Y242570D02*
D03*
Y271780D02*
D03*
Y262043D02*
D03*
X329565Y343323D02*
D03*
Y353060D02*
D03*
Y323850D02*
D03*
Y333587D02*
D03*
X339090Y343323D02*
D03*
Y353060D02*
D03*
Y323850D02*
D03*
Y333587D02*
D03*
X348615Y343323D02*
D03*
Y353060D02*
D03*
Y323850D02*
D03*
Y333587D02*
D03*
X358140Y343323D02*
D03*
Y353060D02*
D03*
Y323850D02*
D03*
Y333587D02*
D03*
X320040D02*
D03*
Y323850D02*
D03*
Y353060D02*
D03*
Y343323D02*
D03*
X200660Y328944D02*
D03*
Y321338D02*
D03*
X223631D02*
D03*
X200660Y313732D02*
D03*
X208317D02*
D03*
X215974D02*
D03*
X223631D02*
D03*
Y336550D02*
D03*
X215974D02*
D03*
X208317D02*
D03*
X200660D02*
D03*
X276860Y317500D02*
D03*
X165100Y284480D02*
D03*
X182390Y292590D02*
D03*
X158750Y332740D02*
D03*
X100654Y262566D02*
D03*
X358140Y210820D02*
D03*
X100330Y232410D02*
D03*
X54610Y214630D02*
D03*
M02*
