M48
;Layer_Color=9474304
;FILE_FORMAT=4:4
METRIC,LZ
;TYPE=PLATED
T1F00S00C0.3000
T2F00S00C0.9000
%
T01
X0010033Y0023241
X00100654Y00262566
X001651Y0028448
X0018239Y0029259
X0020066Y00313732
Y00321338
Y00328944
Y0033655
X00208317
Y00328944
Y00321338
Y00313732
X00215974
Y00321338
Y00328944
Y0033655
X00223631
Y00328944
Y00321338
Y00313732
X0027686Y003175
X0032004Y0032385
X00329565
X0033909
X00348615
X0035814
Y00333587
X00348615
X0033909
X00329565
X0032004
Y00343323
X00329565
X0033909
X00348615
X0035814
Y0035306
X00348615
X0033909
X00329565
X0032004
X0026065Y003556
X0015875Y0033274
X0032131Y0027178
X00330835
X0034036
X00349885
X0035941
Y00262043
X00349885
X0034036
X00330835
X0032131
Y00252307
X00330835
X0034036
X00349885
X0035941
Y0024257
X00349885
X0034036
X00330835
X0032131
X0035814Y0021082
X00369499Y00304546
X0005461Y0021463
T02
X0038481Y0009017
Y0011557
X0004572Y0031369
Y0033909
M30
