G04*
G04 #@! TF.GenerationSoftware,Altium Limited,Altium Designer,21.6.4 (81)*
G04*
G04 Layer_Color=65535*
%FSLAX44Y44*%
%MOMM*%
G71*
G04*
G04 #@! TF.SameCoordinates,B536BBD3-7635-4869-82B2-4475C75F943D*
G04*
G04*
G04 #@! TF.FilePolarity,Positive*
G04*
G01*
G75*
%ADD10C,0.0100*%
%ADD11C,0.2000*%
%ADD12C,0.2540*%
G36*
X183171Y206169D02*
X185821D01*
Y205042D01*
X183171D01*
Y202391D01*
X182057D01*
Y205042D01*
X179379D01*
Y206169D01*
X182057D01*
Y208820D01*
X183171D01*
Y206169D01*
D02*
G37*
D10*
X170960Y297630D02*
X253510D01*
X170960Y352240D02*
X253510D01*
Y297630D02*
Y352240D01*
X170960Y297630D02*
Y352240D01*
X355600Y13970D02*
Y59690D01*
X332740Y13970D02*
Y59690D01*
X355600D01*
X332740Y13970D02*
X355600D01*
X45720Y153670D02*
X91440D01*
X45720Y176530D02*
X91440D01*
Y153670D02*
Y176530D01*
X45720Y153670D02*
Y176530D01*
X295910Y259080D02*
Y304800D01*
X273050Y259080D02*
Y304800D01*
X295910D01*
X273050Y259080D02*
X295910D01*
X46930Y251460D02*
X92650D01*
X46930Y274320D02*
X92650D01*
Y251460D02*
Y274320D01*
X46930Y251460D02*
Y274320D01*
X313486Y212696D02*
Y285696D01*
X365486Y212696D02*
Y285696D01*
X313486Y212696D02*
X365486D01*
X313486Y285696D02*
X365486D01*
X313436Y294386D02*
Y367386D01*
X365436Y294386D02*
Y367386D01*
X313436Y294386D02*
X365436D01*
X313436Y367386D02*
X365436D01*
X313690Y133350D02*
Y200660D01*
X378460Y133350D02*
Y200660D01*
X313690Y133350D02*
X378460D01*
X313690Y200660D02*
X378460D01*
X299720Y62770D02*
Y227870D01*
X260350Y23400D02*
X299720Y62770D01*
X144780Y23400D02*
X260350D01*
X109220Y58960D02*
X144780Y23400D01*
X109220Y58960D02*
Y227870D01*
X299720D01*
X46990Y187960D02*
X92711D01*
X46990Y210821D02*
X92711D01*
Y187960D02*
Y210821D01*
X46990Y187960D02*
Y210821D01*
X275590Y329720D02*
Y375440D01*
X298450Y329720D02*
Y375440D01*
X275590Y329720D02*
X298450D01*
X275590Y375440D02*
X298450D01*
X173510Y396240D02*
X219230D01*
X173510Y373380D02*
X219230D01*
X173510D02*
Y396240D01*
X219230Y373380D02*
Y396240D01*
X46990Y220980D02*
X92710D01*
X46990Y243840D02*
X92710D01*
Y220980D02*
Y243840D01*
X46990Y220980D02*
Y243840D01*
X80010Y309880D02*
Y355600D01*
X102870Y309880D02*
Y355600D01*
X80010Y309880D02*
X102870D01*
X80010Y355600D02*
X102870D01*
X128270Y310360D02*
Y356080D01*
X105410Y310360D02*
Y356080D01*
X128270D01*
X105410Y310360D02*
X128270D01*
X153670D02*
Y356081D01*
X130809Y310360D02*
Y356081D01*
X153670D01*
X130809Y310360D02*
X153670D01*
D11*
X373310Y50640D02*
Y67640D01*
X392310Y72640D02*
X396310Y67640D01*
X373310D02*
X377310Y72640D01*
X396310Y50640D02*
Y67640D01*
X377310Y72640D02*
X392310D01*
X373310Y11640D02*
X396310D01*
X373310D02*
Y30640D01*
X396310Y11640D02*
Y30640D01*
X397510Y77470D02*
Y128270D01*
X372110D02*
X397510D01*
X372110Y77470D02*
Y128270D01*
Y77470D02*
X397510D01*
X33020Y351790D02*
X58420D01*
Y300990D02*
Y351790D01*
X33020Y300990D02*
X58420D01*
X33020D02*
Y351790D01*
D12*
X168911Y355602D02*
Y365758D01*
X166372Y368298D01*
X161293D01*
X158754Y365758D01*
Y355602D01*
X161293Y353063D01*
X166372D01*
X163832Y358141D02*
X168911Y353063D01*
X166372D02*
X168911Y355602D01*
X173989Y365758D02*
X176528Y368298D01*
X181607D01*
X184146Y365758D01*
Y363219D01*
X181607Y360680D01*
X179067D01*
X181607D01*
X184146Y358141D01*
Y355602D01*
X181607Y353063D01*
X176528D01*
X173989Y355602D01*
X13974Y109222D02*
Y124458D01*
X21592D01*
X24131Y121918D01*
Y116840D01*
X21592Y114301D01*
X13974D01*
X19052D02*
X24131Y109222D01*
X36827D02*
Y124458D01*
X29209Y116840D01*
X39366D01*
X353063Y10163D02*
X368298D01*
Y17781D01*
X365758Y20320D01*
X355602D01*
X353063Y17781D01*
Y10163D01*
X368298Y25398D02*
Y30477D01*
Y27938D01*
X353063D01*
X355602Y25398D01*
X331474Y64773D02*
Y80007D01*
X339092D01*
X341631Y77468D01*
Y72390D01*
X339092Y69851D01*
X331474D01*
X336553D02*
X341631Y64773D01*
X356866Y80007D02*
X346709D01*
Y72390D01*
X351787Y74929D01*
X354327D01*
X356866Y72390D01*
Y67312D01*
X354327Y64773D01*
X349248D01*
X346709Y67312D01*
X40637Y154944D02*
X25403D01*
Y162562D01*
X27942Y165101D01*
X33020D01*
X35559Y162562D01*
Y154944D01*
Y160023D02*
X40637Y165101D01*
X27942Y170179D02*
X25403Y172718D01*
Y177797D01*
X27942Y180336D01*
X30481D01*
X33020Y177797D01*
Y175257D01*
Y177797D01*
X35559Y180336D01*
X38098D01*
X40637Y177797D01*
Y172718D01*
X38098Y170179D01*
X271784Y307342D02*
Y322578D01*
X279402D01*
X281941Y320038D01*
Y314960D01*
X279402Y312421D01*
X271784D01*
X276863D02*
X281941Y307342D01*
X297176D02*
X287019D01*
X297176Y317499D01*
Y320038D01*
X294637Y322578D01*
X289558D01*
X287019Y320038D01*
X41908Y255273D02*
X26672D01*
Y262891D01*
X29212Y265430D01*
X34290D01*
X36829Y262891D01*
Y255273D01*
Y260352D02*
X41908Y265430D01*
Y270508D02*
Y275587D01*
Y273048D01*
X26672D01*
X29212Y270508D01*
X370842Y273049D02*
X380998D01*
X383537Y275588D01*
Y280667D01*
X380998Y283206D01*
X370842D01*
X368302Y280667D01*
Y275588D01*
X373381Y278127D02*
X368302Y273049D01*
Y275588D02*
X370842Y273049D01*
X368302Y257814D02*
Y267971D01*
X378459Y257814D01*
X380998D01*
X383537Y260353D01*
Y265432D01*
X380998Y267971D01*
X370842Y355600D02*
X380998D01*
X383537Y358139D01*
Y363218D01*
X380998Y365757D01*
X370842D01*
X368302Y363218D01*
Y358139D01*
X373381Y360678D02*
X368302Y355600D01*
Y358139D02*
X370842Y355600D01*
X368302Y350522D02*
Y345443D01*
Y347982D01*
X383537D01*
X380998Y350522D01*
X368298Y102874D02*
X353063D01*
Y110492D01*
X355602Y113031D01*
X360680D01*
X363219Y110492D01*
Y102874D01*
X368298Y128266D02*
Y118109D01*
X358141Y128266D01*
X355602D01*
X353063Y125727D01*
Y120648D01*
X355602Y118109D01*
X27938Y302263D02*
X12702D01*
Y309881D01*
X15242Y312420D01*
X20320D01*
X22859Y309881D01*
Y302263D01*
X27938Y317498D02*
Y322577D01*
Y320038D01*
X12702D01*
X15242Y317498D01*
X393698Y199387D02*
X378462D01*
Y189230D01*
Y184152D02*
Y179073D01*
Y181612D01*
X393698D01*
X391158Y184152D01*
X154941Y244378D02*
X152402Y246917D01*
X147323D01*
X144784Y244378D01*
Y234222D01*
X147323Y231682D01*
X152402D01*
X154941Y234222D01*
X160019Y244378D02*
X162558Y246917D01*
X167637D01*
X170176Y244378D01*
Y241839D01*
X167637Y239300D01*
X170176Y236761D01*
Y234222D01*
X167637Y231682D01*
X162558D01*
X160019Y234222D01*
Y236761D01*
X162558Y239300D01*
X160019Y241839D01*
Y244378D01*
X162558Y239300D02*
X167637D01*
X28252Y198911D02*
X25712Y196372D01*
Y191293D01*
X28252Y188754D01*
X38408D01*
X40947Y191293D01*
Y196372D01*
X38408Y198911D01*
X25712Y203989D02*
Y214146D01*
X28252D01*
X38408Y203989D01*
X40947D01*
X284481Y392428D02*
X281942Y394967D01*
X276863D01*
X274324Y392428D01*
Y382272D01*
X276863Y379733D01*
X281942D01*
X284481Y382272D01*
X299716Y394967D02*
X294638Y392428D01*
X289559Y387350D01*
Y382272D01*
X292098Y379733D01*
X297177D01*
X299716Y382272D01*
Y384811D01*
X297177Y387350D01*
X289559D01*
X194311Y414018D02*
X191772Y416558D01*
X186693D01*
X184154Y414018D01*
Y403862D01*
X186693Y401323D01*
X191772D01*
X194311Y403862D01*
X209546Y416558D02*
X199389D01*
Y408940D01*
X204468Y411479D01*
X207007D01*
X209546Y408940D01*
Y403862D01*
X207007Y401323D01*
X201928D01*
X199389Y403862D01*
X29212Y231141D02*
X26672Y228602D01*
Y223523D01*
X29212Y220984D01*
X39368D01*
X41908Y223523D01*
Y228602D01*
X39368Y231141D01*
X41908Y243837D02*
X26672D01*
X34290Y236219D01*
Y246376D01*
X85092Y370051D02*
X82552Y367512D01*
Y362433D01*
X85092Y359894D01*
X95248D01*
X97788Y362433D01*
Y367512D01*
X95248Y370051D01*
X85092Y375129D02*
X82552Y377668D01*
Y382747D01*
X85092Y385286D01*
X87631D01*
X90170Y382747D01*
Y380207D01*
Y382747D01*
X92709Y385286D01*
X95248D01*
X97788Y382747D01*
Y377668D01*
X95248Y375129D01*
X110492Y371321D02*
X107952Y368782D01*
Y363703D01*
X110492Y361164D01*
X120648D01*
X123188Y363703D01*
Y368782D01*
X120648Y371321D01*
X123188Y386556D02*
Y376399D01*
X113031Y386556D01*
X110492D01*
X107952Y384017D01*
Y378938D01*
X110492Y376399D01*
X137162Y373380D02*
X134622Y370841D01*
Y365762D01*
X137162Y363223D01*
X147318D01*
X149858Y365762D01*
Y370841D01*
X147318Y373380D01*
X149858Y378458D02*
Y383537D01*
Y380998D01*
X134622D01*
X137162Y378458D01*
M02*
