G04*
G04 #@! TF.GenerationSoftware,Altium Limited,Altium Designer,21.6.4 (81)*
G04*
G04 Layer_Color=16711935*
%FSLAX44Y44*%
%MOMM*%
G71*
G04*
G04 #@! TF.SameCoordinates,B536BBD3-7635-4869-82B2-4475C75F943D*
G04*
G04*
G04 #@! TF.FilePolarity,Negative*
G04*
G01*
G75*
%ADD30R,1.7032X1.7032*%
%ADD39C,1.7032*%
%ADD40C,0.7112*%
D30*
X384810Y115570D02*
D03*
X45720Y313690D02*
D03*
D39*
X384810Y90170D02*
D03*
X45720Y339090D02*
D03*
D40*
X208317Y321338D02*
D03*
X215974D02*
D03*
X223631Y328944D02*
D03*
X215974D02*
D03*
X208317D02*
D03*
X260650Y355600D02*
D03*
X369499Y304546D02*
D03*
X321310Y262043D02*
D03*
Y271780D02*
D03*
Y242570D02*
D03*
Y252307D02*
D03*
X359410D02*
D03*
Y242570D02*
D03*
Y271780D02*
D03*
Y262043D02*
D03*
X349885Y252307D02*
D03*
Y242570D02*
D03*
Y271780D02*
D03*
Y262043D02*
D03*
X340360Y252307D02*
D03*
Y242570D02*
D03*
Y271780D02*
D03*
Y262043D02*
D03*
X330835Y252307D02*
D03*
Y242570D02*
D03*
Y271780D02*
D03*
Y262043D02*
D03*
X329565Y343323D02*
D03*
Y353060D02*
D03*
Y323850D02*
D03*
Y333587D02*
D03*
X339090Y343323D02*
D03*
Y353060D02*
D03*
Y323850D02*
D03*
Y333587D02*
D03*
X348615Y343323D02*
D03*
Y353060D02*
D03*
Y323850D02*
D03*
Y333587D02*
D03*
X358140Y343323D02*
D03*
Y353060D02*
D03*
Y323850D02*
D03*
Y333587D02*
D03*
X320040D02*
D03*
Y323850D02*
D03*
Y353060D02*
D03*
Y343323D02*
D03*
X200660Y328944D02*
D03*
Y321338D02*
D03*
X223631D02*
D03*
X200660Y313732D02*
D03*
X208317D02*
D03*
X215974D02*
D03*
X223631D02*
D03*
Y336550D02*
D03*
X215974D02*
D03*
X208317D02*
D03*
X200660D02*
D03*
X276860Y317500D02*
D03*
X165100Y284480D02*
D03*
X182390Y292590D02*
D03*
X158750Y332740D02*
D03*
X100654Y262566D02*
D03*
X358140Y210820D02*
D03*
X100330Y232410D02*
D03*
X54610Y214630D02*
D03*
M02*
