G04*
G04 #@! TF.GenerationSoftware,Altium Limited,Altium Designer,21.6.4 (81)*
G04*
G04 Layer_Color=8421504*
%FSLAX44Y44*%
%MOMM*%
G71*
G04*
G04 #@! TF.SameCoordinates,B536BBD3-7635-4869-82B2-4475C75F943D*
G04*
G04*
G04 #@! TF.FilePolarity,Positive*
G04*
G01*
G75*
%ADD13R,3.0000X3.1000*%
%ADD14R,1.7800X0.3560*%
%ADD15R,1.9500X1.4000*%
%ADD16R,3.3000X1.2000*%
%ADD17R,1.5000X1.5000*%
%ADD18R,1.4000X1.9500*%
%ADD19R,0.7100X1.3720*%
%ADD20R,4.5200X3.8500*%
%ADD21R,0.7200X0.5930*%
%ADD22R,5.7000X1.6000*%
%ADD23R,2.5000X6.5000*%
%ADD24R,1.1500X1.8000*%
%ADD25R,1.8000X1.1500*%
D13*
X212090Y325120D02*
D03*
D14*
X241790Y305620D02*
D03*
Y312120D02*
D03*
Y318620D02*
D03*
Y325120D02*
D03*
Y331620D02*
D03*
Y338120D02*
D03*
Y344620D02*
D03*
X182390Y305620D02*
D03*
Y312120D02*
D03*
Y318620D02*
D03*
Y325120D02*
D03*
Y331620D02*
D03*
Y338120D02*
D03*
Y344620D02*
D03*
D15*
X344170Y50860D02*
D03*
Y22860D02*
D03*
X284480Y267970D02*
D03*
Y295970D02*
D03*
D16*
X96520Y44450D02*
D03*
Y95250D02*
D03*
X32520Y69850D02*
D03*
D17*
X384810Y23140D02*
D03*
Y58140D02*
D03*
D18*
X82610Y165100D02*
D03*
X54610D02*
D03*
X83820Y262890D02*
D03*
X55820D02*
D03*
D19*
X357936Y222856D02*
D03*
X332536D02*
D03*
X345236D02*
D03*
X319836D02*
D03*
X319786Y304546D02*
D03*
X345186D02*
D03*
X332486D02*
D03*
X357886D02*
D03*
D20*
X339140Y257400D02*
D03*
X339090Y339090D02*
D03*
D21*
X358140Y279400D02*
D03*
X320140D02*
D03*
X345440D02*
D03*
X332840D02*
D03*
X332790Y361090D02*
D03*
X345390D02*
D03*
X320090D02*
D03*
X358090D02*
D03*
D22*
X345440Y190500D02*
D03*
Y143500D02*
D03*
D23*
X201930Y188500D02*
D03*
X203200Y63500D02*
D03*
D24*
X84610Y199390D02*
D03*
X54610D02*
D03*
X211610Y384810D02*
D03*
X181610D02*
D03*
X54610Y232410D02*
D03*
X84610D02*
D03*
D25*
X287020Y367820D02*
D03*
Y337820D02*
D03*
X91440Y317980D02*
D03*
Y347980D02*
D03*
X116840D02*
D03*
Y317980D02*
D03*
X142240D02*
D03*
Y347980D02*
D03*
M02*
