G04*
G04 #@! TF.GenerationSoftware,Altium Limited,Altium Designer,21.6.4 (81)*
G04*
G04 Layer_Physical_Order=2*
G04 Layer_Color=16711680*
%FSLAX44Y44*%
%MOMM*%
G71*
G04*
G04 #@! TF.SameCoordinates,B536BBD3-7635-4869-82B2-4475C75F943D*
G04*
G04*
G04 #@! TF.FilePolarity,Positive*
G04*
G01*
G75*
%ADD17R,1.5000X1.5000*%
%ADD42C,0.4000*%
%ADD44C,1.5000*%
%ADD45C,0.5080*%
%ADD46C,0.9000*%
G36*
X402590Y314960D02*
X393467D01*
Y389890D01*
X393002Y392231D01*
X391676Y394216D01*
X368816Y417076D01*
X366831Y418402D01*
X364490Y418867D01*
X273050D01*
X270709Y418402D01*
X268724Y417076D01*
X238244Y386596D01*
X236918Y384611D01*
X236453Y382270D01*
Y354330D01*
X236918Y351989D01*
X238244Y350004D01*
X246715Y341533D01*
X246229Y340360D01*
X230138D01*
X229665Y341180D01*
X228261Y342584D01*
X226542Y343576D01*
X224624Y344090D01*
X222639D01*
X220721Y343576D01*
X219803Y343046D01*
X218885Y343576D01*
X216967Y344090D01*
X214982D01*
X213064Y343576D01*
X212146Y343046D01*
X211227Y343576D01*
X209310Y344090D01*
X207325D01*
X205407Y343576D01*
X204489Y343046D01*
X203685Y343510D01*
X199302Y347892D01*
X197840Y349015D01*
X196137Y349720D01*
X194310Y349960D01*
X146050D01*
X144223Y349720D01*
X142520Y349015D01*
X141058Y347892D01*
X133525Y340360D01*
X69850D01*
Y323272D01*
X58220D01*
Y326190D01*
X33220D01*
Y301190D01*
X58220D01*
Y304108D01*
X69850D01*
Y252491D01*
X65009Y247650D01*
X0D01*
Y425450D01*
X402590D01*
Y314960D01*
D02*
G37*
G36*
X381232Y387356D02*
Y316224D01*
X379968Y314960D01*
X313690D01*
X307340Y321310D01*
Y340360D01*
X284271D01*
X283726Y341176D01*
X266699Y358202D01*
X265883Y359616D01*
X264666Y360833D01*
X263174Y361694D01*
X261511Y362140D01*
X259789D01*
X258126Y361694D01*
X256634Y360833D01*
X255417Y359616D01*
X254556Y358124D01*
X254110Y356461D01*
Y354739D01*
X254556Y353076D01*
X254943Y352404D01*
X253927Y351624D01*
X248687Y356864D01*
Y379736D01*
X275584Y406632D01*
X361956D01*
X381232Y387356D01*
D02*
G37*
G36*
X194806Y344753D02*
X195269Y344561D01*
X195934Y344051D01*
X197913Y342073D01*
X197744Y340818D01*
X196353Y339427D01*
X195688Y337820D01*
X200660D01*
Y335280D01*
X195688D01*
X196353Y333672D01*
X197279Y332747D01*
X196353Y331822D01*
X195688Y330214D01*
X200660D01*
Y327674D01*
X195688D01*
X196353Y326066D01*
X197279Y325141D01*
X196353Y324216D01*
X195688Y322608D01*
X200660D01*
Y320068D01*
X195688D01*
X196353Y318461D01*
X197279Y317535D01*
X196353Y316610D01*
X195688Y315002D01*
X200660D01*
Y313732D01*
X201930D01*
Y308760D01*
X203538Y309426D01*
X204489Y310376D01*
X205439Y309426D01*
X207047Y308760D01*
Y313732D01*
X209587D01*
Y308760D01*
X211195Y309426D01*
X212146Y310376D01*
X213097Y309426D01*
X214704Y308760D01*
Y313732D01*
X217244D01*
Y308760D01*
X218852Y309426D01*
X219803Y310376D01*
X220754Y309426D01*
X222361Y308760D01*
Y313732D01*
X223631D01*
Y315002D01*
X228604D01*
X227938Y316610D01*
X227013Y317535D01*
X227938Y318461D01*
X228604Y320068D01*
X223631D01*
Y322608D01*
X228604D01*
X227938Y324216D01*
X227013Y325141D01*
X227938Y326066D01*
X228604Y327674D01*
X223631D01*
Y330214D01*
X228604D01*
X227938Y331822D01*
X227013Y332747D01*
X227938Y333672D01*
X228641Y335369D01*
X228819Y335436D01*
X229484Y335392D01*
X230138Y335262D01*
X246229D01*
X248180Y335650D01*
X249834Y336755D01*
X251365Y336884D01*
X254530Y333718D01*
X254147Y333145D01*
X253950Y332154D01*
Y283210D01*
X254147Y282219D01*
X254709Y281379D01*
X300429Y235659D01*
X301269Y235097D01*
X302260Y234900D01*
X368532D01*
Y229864D01*
X355538Y216869D01*
X354124Y216053D01*
X352907Y214836D01*
X352046Y213344D01*
X351600Y211681D01*
Y209959D01*
X352046Y208296D01*
X352907Y206804D01*
X354124Y205587D01*
X355616Y204726D01*
X357279Y204280D01*
X359001D01*
X360664Y204726D01*
X362156Y205587D01*
X363373Y206804D01*
X364189Y208218D01*
X370887Y214915D01*
X372060Y214429D01*
Y201980D01*
X316230D01*
X315239Y201783D01*
X314399Y201221D01*
X313837Y200381D01*
X313640Y199390D01*
Y181610D01*
X313837Y180619D01*
X314399Y179779D01*
X315239Y179217D01*
X316230Y179020D01*
X402590D01*
Y0D01*
X0D01*
Y242552D01*
X58251D01*
X58737Y241379D01*
X50284Y232926D01*
X48958Y230941D01*
X48492Y228600D01*
Y217068D01*
X48070Y215491D01*
Y213769D01*
X48516Y212106D01*
X49377Y210614D01*
X50594Y209397D01*
X52086Y208536D01*
X53749Y208090D01*
X55471D01*
X57134Y208536D01*
X58626Y209397D01*
X59843Y210614D01*
X60704Y212106D01*
X61150Y213769D01*
Y215491D01*
X60728Y217068D01*
Y226066D01*
X93875Y259213D01*
X95134Y259047D01*
X95420Y258551D01*
X96638Y257333D01*
X98129Y256472D01*
X99793Y256026D01*
X101515D01*
X103178Y256472D01*
X104669Y257333D01*
X105887Y258551D01*
X106703Y259964D01*
X133641Y286902D01*
X144512D01*
X144998Y285729D01*
X97728Y238459D01*
X96314Y237643D01*
X95097Y236426D01*
X94236Y234934D01*
X93790Y233271D01*
Y231549D01*
X94236Y229886D01*
X95097Y228394D01*
X96314Y227177D01*
X97806Y226316D01*
X99469Y225870D01*
X101191D01*
X102854Y226316D01*
X104346Y227177D01*
X105563Y228394D01*
X106379Y229808D01*
X154934Y278363D01*
X162662D01*
X164239Y277940D01*
X165961D01*
X167624Y278386D01*
X169116Y279247D01*
X170333Y280464D01*
X171194Y281956D01*
X171640Y283619D01*
Y285258D01*
X171675Y285422D01*
X172652Y286472D01*
X179952D01*
X181529Y286050D01*
X183251D01*
X184914Y286496D01*
X186406Y287357D01*
X187623Y288574D01*
X188484Y290066D01*
X188930Y291729D01*
Y293451D01*
X188484Y295114D01*
X187623Y296606D01*
X186406Y297823D01*
X184914Y298684D01*
X183251Y299130D01*
X181529D01*
X179952Y298708D01*
X173777D01*
X171615Y299137D01*
X135458D01*
X134972Y300311D01*
X161352Y326691D01*
X162766Y327507D01*
X163983Y328724D01*
X164844Y330216D01*
X165290Y331879D01*
Y333601D01*
X164844Y335264D01*
X163983Y336756D01*
X162766Y337973D01*
X161274Y338834D01*
X159611Y339280D01*
X157889D01*
X156226Y338834D01*
X154734Y337973D01*
X153517Y336756D01*
X152701Y335342D01*
X76121Y258763D01*
X74948Y259249D01*
Y304108D01*
X74560Y306059D01*
X73455Y307713D01*
X71801Y308818D01*
X69850Y309206D01*
X58220D01*
X57030Y308969D01*
X55760Y309889D01*
Y312420D01*
X45720D01*
Y314960D01*
X55760D01*
Y317491D01*
X57030Y318411D01*
X58220Y318174D01*
X69850D01*
X71801Y318562D01*
X73455Y319667D01*
X74560Y321321D01*
X74948Y323272D01*
Y335262D01*
X133525D01*
X135476Y335650D01*
X137130Y336755D01*
X144426Y344051D01*
X145091Y344561D01*
X145554Y344753D01*
X146384Y344862D01*
X193976D01*
X194806Y344753D01*
D02*
G37*
G36*
X271798Y318555D02*
X271780Y318510D01*
Y316490D01*
X272553Y314622D01*
X273982Y313193D01*
X275849Y312420D01*
X277871D01*
X279738Y313193D01*
X281167Y314622D01*
X281780Y316103D01*
X283113Y316565D01*
X311904Y287774D01*
X313889Y286448D01*
X316230Y285982D01*
X361956D01*
X368532Y279406D01*
Y237490D01*
X302260D01*
X256540Y283210D01*
Y332154D01*
X257713Y332640D01*
X271798Y318555D01*
D02*
G37*
G36*
X302260Y318770D02*
X308610Y312420D01*
X310462D01*
X310806Y312076D01*
X312129Y311192D01*
X313690Y310882D01*
X313690Y310882D01*
X368454D01*
X368488Y309626D01*
X366621Y308853D01*
X365192Y307424D01*
X364419Y305557D01*
Y303535D01*
X365192Y301668D01*
X366621Y300239D01*
X368488Y299466D01*
X370509D01*
X371598Y299917D01*
X378206D01*
X378206Y299917D01*
X379977Y300269D01*
X381479Y301273D01*
X390623Y310417D01*
X390623Y310417D01*
X391377Y311546D01*
X391907Y311192D01*
X393467Y310882D01*
X402590D01*
Y181610D01*
X316230D01*
Y199390D01*
X374650D01*
Y218678D01*
X378976Y223004D01*
X380302Y224989D01*
X380768Y227330D01*
Y281940D01*
X380302Y284281D01*
X378976Y286266D01*
X368816Y296426D01*
X366831Y297752D01*
X364490Y298218D01*
X318764D01*
X285518Y331464D01*
Y336282D01*
X302260D01*
Y318770D01*
D02*
G37*
%LPC*%
G36*
X228604Y312462D02*
X224901D01*
Y308760D01*
X226509Y309426D01*
X227938Y310855D01*
X228604Y312462D01*
D02*
G37*
G36*
X199390D02*
X195688D01*
X196353Y310855D01*
X197782Y309426D01*
X199390Y308760D01*
Y312462D01*
D02*
G37*
G36*
X397310Y128070D02*
X372310D01*
Y103070D01*
X397310D01*
Y128070D01*
D02*
G37*
G36*
X386132Y100210D02*
X386080D01*
Y91440D01*
X394850D01*
Y91492D01*
X394166Y94045D01*
X392844Y96335D01*
X390975Y98204D01*
X388685Y99526D01*
X386132Y100210D01*
D02*
G37*
G36*
X383540D02*
X383488D01*
X380935Y99526D01*
X378645Y98204D01*
X376776Y96335D01*
X375454Y94045D01*
X374770Y91492D01*
Y91440D01*
X383540D01*
Y100210D01*
D02*
G37*
G36*
X394850Y88900D02*
X386080D01*
Y80130D01*
X386132D01*
X388685Y80814D01*
X390975Y82136D01*
X392844Y84005D01*
X394166Y86295D01*
X394850Y88848D01*
Y88900D01*
D02*
G37*
G36*
X383540D02*
X374770D01*
Y88848D01*
X375454Y86295D01*
X376776Y84005D01*
X378645Y82136D01*
X380935Y80814D01*
X383488Y80130D01*
X383540D01*
Y88900D01*
D02*
G37*
%LPD*%
D17*
X384810Y115570D02*
D03*
X45720Y313690D02*
D03*
D42*
X369499Y304546D02*
X378206D01*
X387350Y313690D01*
Y389890D01*
X364490Y412750D02*
X387350Y389890D01*
X273050Y412750D02*
X364490D01*
X242570Y382270D02*
X273050Y412750D01*
X242570Y354330D02*
X276653Y320247D01*
X242570Y354330D02*
Y382270D01*
X276653Y317707D02*
Y320247D01*
Y317707D02*
X276860Y317500D01*
X279400Y328930D02*
Y336850D01*
X316230Y292100D02*
X364490D01*
X279400Y328930D02*
X316230Y292100D01*
X260650Y355600D02*
X279400Y336850D01*
X194310Y342900D02*
X200660Y336550D01*
X364490Y292100D02*
X374650Y281940D01*
Y227330D02*
Y281940D01*
X358140Y210820D02*
X374650Y227330D01*
X100330Y232410D02*
X152400Y284480D01*
X165100D01*
X172045Y292590D02*
X182390D01*
X171615Y293020D02*
X172045Y292590D01*
X100654Y262566D02*
X131107Y293020D01*
X171615D01*
X146050Y342900D02*
X194310D01*
X116840Y313690D02*
X146050Y342900D01*
X54610Y228600D02*
X158750Y332740D01*
X54610Y214630D02*
Y228600D01*
D44*
X384810Y90170D02*
D03*
X45720Y339090D02*
D03*
D45*
X208317Y321338D02*
D03*
X215974D02*
D03*
X223631Y328944D02*
D03*
X215974D02*
D03*
X208317D02*
D03*
X260650Y355600D02*
D03*
X369499Y304546D02*
D03*
X321310Y262043D02*
D03*
Y271780D02*
D03*
Y242570D02*
D03*
Y252307D02*
D03*
X359410D02*
D03*
Y242570D02*
D03*
Y271780D02*
D03*
Y262043D02*
D03*
X349885Y252307D02*
D03*
Y242570D02*
D03*
Y271780D02*
D03*
Y262043D02*
D03*
X340360Y252307D02*
D03*
Y242570D02*
D03*
Y271780D02*
D03*
Y262043D02*
D03*
X330835Y252307D02*
D03*
Y242570D02*
D03*
Y271780D02*
D03*
Y262043D02*
D03*
X329565Y343323D02*
D03*
Y353060D02*
D03*
Y323850D02*
D03*
Y333587D02*
D03*
X339090Y343323D02*
D03*
Y353060D02*
D03*
Y323850D02*
D03*
Y333587D02*
D03*
X348615Y343323D02*
D03*
Y353060D02*
D03*
Y323850D02*
D03*
Y333587D02*
D03*
X358140Y343323D02*
D03*
Y353060D02*
D03*
Y323850D02*
D03*
Y333587D02*
D03*
X320040D02*
D03*
Y323850D02*
D03*
Y353060D02*
D03*
Y343323D02*
D03*
X200660Y328944D02*
D03*
Y321338D02*
D03*
X223631D02*
D03*
X200660Y313732D02*
D03*
X208317D02*
D03*
X215974D02*
D03*
X223631D02*
D03*
Y336550D02*
D03*
X215974D02*
D03*
X208317D02*
D03*
X200660D02*
D03*
X276860Y317500D02*
D03*
X165100Y284480D02*
D03*
X182390Y292590D02*
D03*
X158750Y332740D02*
D03*
X100654Y262566D02*
D03*
X358140Y210820D02*
D03*
X100330Y232410D02*
D03*
X54610Y214630D02*
D03*
D46*
X45720Y313690D02*
X116840D01*
M02*
