G04*
G04 #@! TF.GenerationSoftware,Altium Limited,Altium Designer,21.6.4 (81)*
G04*
G04 Layer_Color=8388736*
%FSLAX44Y44*%
%MOMM*%
G71*
G04*
G04 #@! TF.SameCoordinates,B536BBD3-7635-4869-82B2-4475C75F943D*
G04*
G04*
G04 #@! TF.FilePolarity,Negative*
G04*
G01*
G75*
%ADD26R,3.2032X3.3032*%
%ADD27R,1.9832X0.5592*%
%ADD28R,2.1532X1.6032*%
%ADD29R,3.5032X1.4032*%
%ADD30R,1.7032X1.7032*%
%ADD31R,1.6032X2.1532*%
%ADD32R,0.9132X1.5752*%
%ADD33R,4.7232X4.0532*%
%ADD34R,0.9232X0.7962*%
%ADD35R,5.9032X1.8032*%
%ADD36R,2.7032X6.7032*%
%ADD37R,1.3532X2.0032*%
%ADD38R,2.0032X1.3532*%
%ADD39C,1.7032*%
%ADD40C,0.7112*%
D26*
X212090Y325120D02*
D03*
D27*
X241790Y305620D02*
D03*
Y312120D02*
D03*
Y318620D02*
D03*
Y325120D02*
D03*
Y331620D02*
D03*
Y338120D02*
D03*
Y344620D02*
D03*
X182390Y305620D02*
D03*
Y312120D02*
D03*
Y318620D02*
D03*
Y325120D02*
D03*
Y331620D02*
D03*
Y338120D02*
D03*
Y344620D02*
D03*
D28*
X344170Y50860D02*
D03*
Y22860D02*
D03*
X284480Y267970D02*
D03*
Y295970D02*
D03*
D29*
X96520Y44450D02*
D03*
Y95250D02*
D03*
X32520Y69850D02*
D03*
D30*
X384810Y23140D02*
D03*
Y58140D02*
D03*
Y115570D02*
D03*
X45720Y313690D02*
D03*
D31*
X82610Y165100D02*
D03*
X54610D02*
D03*
X83820Y262890D02*
D03*
X55820D02*
D03*
D32*
X357936Y222856D02*
D03*
X332536D02*
D03*
X345236D02*
D03*
X319836D02*
D03*
X319786Y304546D02*
D03*
X345186D02*
D03*
X332486D02*
D03*
X357886D02*
D03*
D33*
X339140Y257400D02*
D03*
X339090Y339090D02*
D03*
D34*
X358140Y279400D02*
D03*
X320140D02*
D03*
X345440D02*
D03*
X332840D02*
D03*
X332790Y361090D02*
D03*
X345390D02*
D03*
X320090D02*
D03*
X358090D02*
D03*
D35*
X345440Y190500D02*
D03*
Y143500D02*
D03*
D36*
X201930Y188500D02*
D03*
X203200Y63500D02*
D03*
D37*
X84610Y199390D02*
D03*
X54610D02*
D03*
X211610Y384810D02*
D03*
X181610D02*
D03*
X54610Y232410D02*
D03*
X84610D02*
D03*
D38*
X287020Y367820D02*
D03*
Y337820D02*
D03*
X91440Y317980D02*
D03*
Y347980D02*
D03*
X116840D02*
D03*
Y317980D02*
D03*
X142240D02*
D03*
Y347980D02*
D03*
D39*
X384810Y90170D02*
D03*
X45720Y339090D02*
D03*
D40*
X208317Y321338D02*
D03*
X215974D02*
D03*
X223631Y328944D02*
D03*
X215974D02*
D03*
X208317D02*
D03*
X260650Y355600D02*
D03*
X369499Y304546D02*
D03*
X321310Y262043D02*
D03*
Y271780D02*
D03*
Y242570D02*
D03*
Y252307D02*
D03*
X359410D02*
D03*
Y242570D02*
D03*
Y271780D02*
D03*
Y262043D02*
D03*
X349885Y252307D02*
D03*
Y242570D02*
D03*
Y271780D02*
D03*
Y262043D02*
D03*
X340360Y252307D02*
D03*
Y242570D02*
D03*
Y271780D02*
D03*
Y262043D02*
D03*
X330835Y252307D02*
D03*
Y242570D02*
D03*
Y271780D02*
D03*
Y262043D02*
D03*
X329565Y343323D02*
D03*
Y353060D02*
D03*
Y323850D02*
D03*
Y333587D02*
D03*
X339090Y343323D02*
D03*
Y353060D02*
D03*
Y323850D02*
D03*
Y333587D02*
D03*
X348615Y343323D02*
D03*
Y353060D02*
D03*
Y323850D02*
D03*
Y333587D02*
D03*
X358140Y343323D02*
D03*
Y353060D02*
D03*
Y323850D02*
D03*
Y333587D02*
D03*
X320040D02*
D03*
Y323850D02*
D03*
Y353060D02*
D03*
Y343323D02*
D03*
X200660Y328944D02*
D03*
Y321338D02*
D03*
X223631D02*
D03*
X200660Y313732D02*
D03*
X208317D02*
D03*
X215974D02*
D03*
X223631D02*
D03*
Y336550D02*
D03*
X215974D02*
D03*
X208317D02*
D03*
X200660D02*
D03*
X276860Y317500D02*
D03*
X165100Y284480D02*
D03*
X182390Y292590D02*
D03*
X158750Y332740D02*
D03*
X100654Y262566D02*
D03*
X358140Y210820D02*
D03*
X100330Y232410D02*
D03*
X54610Y214630D02*
D03*
M02*
